<?xml version="1.0" encoding="iso-8859-1"?>
<!-- Uploaded to: SVG Repo, www.svgrepo.com, Generator: SVG Repo Mixer Tools -->
<!DOCTYPE svg PUBLIC "-//W3C//DTD SVG 1.1//EN" "http://www.w3.org/Graphics/SVG/1.1/DTD/svg11.dtd">
<svg fill="#fff" version="1.1" id="Capa_1" xmlns="http://www.w3.org/2000/svg" xmlns:xlink="http://www.w3.org/1999/xlink"
	 width="800px" height="800px" viewBox="0 0 499.605 499.605"
	 xml:space="preserve">
<g>
	<path d="M315.673,481.832c36.72,11.016,116.28,37.332,141.983-7.344c28.765-49.572,15.912-131.58,10.404-184.824
		c-3.06-30.602-10.404-137.701-59.364-137.088c-2.447,0-4.896,1.224-6.731,3.672c-27.54,6.12-53.856,37.944-74.664,55.08
		c-3.672,3.06-7.956,6.732-11.628,9.792C256.921,150.127,217.141,54.043,140.029,2.635c-4.896-3.06-9.18-3.06-12.852-0.612
		c-0.612-0.612-1.224-0.612-1.836-1.224c-14.688-5.508-35.496,18.972-45.9,26.928c-18.36,15.3-37.332,30.6-52.632,48.96
		c-3.672,4.896-3.672,9.18-1.224,13.464c0,3.06,0.612,6.12,3.06,8.568c60.588,71.604,127.908,135.864,183.6,211.751
		c-23.256,18.973-47.124,37.332-72.828,52.633c-3.06,1.836-4.896,4.283-6.12,7.344c-9.792,0-17.136,15.301-7.344,24.48
		C175.525,439.604,253.249,463.471,315.673,481.832z"/>
</g>
</svg>
