<svg id="Layer_1" data-name="Layer 1" xmlns="http://www.w3.org/2000/svg" xmlns:xlink="http://www.w3.org/1999/xlink" viewBox="0 0 500 500"><defs><style>.cls-1{fill:url(#radial-gradient);}.cls-2{fill:#fff;}</style><radialGradient id="radial-gradient" cx="1.97" cy="-14.39" r="498.68" gradientUnits="userSpaceOnUse"><stop offset="0" stop-color="#32fcb6"/><stop offset="1" stop-color="#2469ff"/></radialGradient></defs><title>Codevider_logo</title><rect class="cls-1" width="500" height="500"/><path class="cls-2" d="M250.3,368.88l-84.81-84.8c-16.12-16.13-24.9-34.71-25.4-53.73a62.07,62.07,0,0,1,18.27-45.92c21.33-21.32,58.67-27.11,91.93.14,33.33-27.31,70.71-21.55,92-.23a62,62,0,0,1,18.25,45.95c-.51,19-9.32,37.64-25.47,53.79ZM202.63,188a40.49,40.49,0,0,0-40.74,41.74c.35,13.34,6.92,26.78,19,38.88L250.3,338l69.38-69.38c12.13-12.13,18.73-25.6,19.09-39a40.36,40.36,0,0,0-11.87-29.94C312.05,184.91,284.15,180.83,258,207l-7.71,7.71L242.59,207C229.06,193.45,215.05,188,202.63,188Z"/><path class="cls-2" d="M365.9,401.9a8.85,8.85,0,0,1-7.65-13.26L434,257.52,358.25,126.4a8.84,8.84,0,1,1,15.31-8.84L451.82,253.1a8.88,8.88,0,0,1,0,8.84L373.56,397.48A8.84,8.84,0,0,1,365.9,401.9Z"/><path class="cls-2" d="M134.76,401.9a8.85,8.85,0,0,1-7.66-4.42L48.85,261.94a8.84,8.84,0,0,1,0-8.84L127.1,117.56a8.84,8.84,0,0,1,15.31,8.84L66.71,257.52l75.7,131.12a8.85,8.85,0,0,1-7.65,13.26Z"/></svg>